<svg width="135" height="145" viewBox="0 0 135 145" fill="none" xmlns="http://www.w3.org/2000/svg">
<path d="M125.061 109.769C115.461 126.46 99.6357 138.663 81.0533 143.704C80.0458 143.977 78.9887 144.012 77.9652 143.807C76.9418 143.602 75.98 143.162 75.1557 142.521C74.3314 141.881 73.667 141.058 73.2151 140.117C72.7631 139.176 72.5358 138.143 72.5511 137.099C72.679 125.736 71.2571 114.409 68.3247 103.43C67.0192 98.5305 65.4143 93.7159 63.5192 89.0132C53.703 64.5205 36.3259 43.8 13.9173 29.8679C13.0294 29.3163 12.2821 28.5654 11.7347 27.6749C11.1872 26.7844 10.8546 25.7787 10.7631 24.7374C10.6717 23.6961 10.8239 22.6477 11.2077 21.6754C11.5916 20.7031 12.1965 19.8336 12.9747 19.1356C73.4322 -34.6866 165.458 34.464 125.061 109.769Z" fill="#45CB85"/>
<path d="M35.8009 144.209C45.6855 144.209 53.6985 136.196 53.6985 126.312C53.6985 116.427 45.6855 108.414 35.8009 108.414C25.9163 108.414 17.9033 116.427 17.9033 126.312C17.9033 136.196 25.9163 144.209 35.8009 144.209Z" fill="#45CB85"/>
<path d="M17.8976 90.5061C27.7821 90.5061 35.7952 82.4931 35.7952 72.6085C35.7952 62.724 27.7821 54.7109 17.8976 54.7109C8.01302 54.7109 0 62.724 0 72.6085C0 82.4931 8.01302 90.5061 17.8976 90.5061Z" fill="#45CB85"/>
</svg>
