<svg width="801" height="701" viewBox="0 0 801 701" fill="none" xmlns="http://www.w3.org/2000/svg">
<path d="M798.829 340.139C814.732 442.021 731.895 520.747 610.118 547.964C505.008 571.456 468.962 687.153 354.338 697.222C272.618 704.4 182.742 704.552 149.157 650.801C127.546 616.214 174.436 530.391 148.884 487.257C100.539 405.647 0.715348 324.793 0.575175 240.87C0.415984 145.56 68.3466 153.616 102.22 115.891C138.989 69.9628 192.272 -5.02119 304.341 0.909804C350.736 0.909804 402.19 39.314 458.603 52.3298C513.019 64.8852 572.289 51.6209 623.281 75.1831C741.272 129.703 716.867 181.831 704.483 240.87C700.384 294.603 787.42 267.051 798.829 340.139Z" fill="#D9D9D9"/>
</svg>
